<?xml version="1.0"?>
<svg xmlns="http://www.w3.org/2000/svg" xmlns:xlink="http://www.w3.org/1999/xlink" version="1.1" viewBox="0 0 192 192" width="64px" height="64px"><g fill="none" fill-rule="nonzero" stroke="none" stroke-width="1" stroke-linecap="butt" stroke-linejoin="miter" stroke-miterlimit="10" stroke-dasharray="" stroke-dashoffset="0" font-family="none" font-weight="none" font-size="none" text-anchor="none" style="mix-blend-mode: normal"><path d="M0,192v-192h192v192z" fill="none"/><g id="Layer_1"><g><g fill="#666666"><g><g><g><g><g><g><path d="M189.0375,96c0,-51.375 -41.6625,-93.0375 -93.0375,-93.0375c-51.375,0 -93.0375,41.6625 -93.0375,93.0375c0,51.375 41.6625,93.0375 93.0375,93.0375c51.375,0 93.0375,-41.6625 93.0375,-93.0375z"/></g></g></g></g></g></g></g><g fill="#ffffff"><path d="M106.875,96l27.1875,-31.575c2.9625,-3.45 2.5875,-8.625 -0.8625,-11.625c-3.45,-2.9625 -8.625,-2.5875 -11.5875,0.8625l-25.6125,29.7375l-25.575,-29.7c-2.9625,-3.45 -8.175,-3.825 -11.625,-0.8625c-3.45,2.9625 -3.825,8.175 -0.8625,11.625l27.1875,31.5375l-27.1875,31.575c-2.9625,3.45 -2.5875,8.625 0.8625,11.625c1.5375,1.35 3.45,1.9875 5.3625,1.9875c2.325,0 4.6125,-0.975 6.225,-2.85l25.575,-29.7l25.575,29.7c1.6125,1.875 3.9375,2.85 6.225,2.85c1.9125,0 3.825,-0.6375 5.3625,-1.9875c3.45,-2.9625 3.825,-8.175 0.8625,-11.625z"/></g></g></g></g></svg>
